<?xml version="1.0" encoding="UTF-8" standalone="no"?>
<svg width="500px" height="176px" viewBox="0 0 500 176" version="1.1" xmlns="http://www.w3.org/2000/svg" xmlns:xlink="http://www.w3.org/1999/xlink" xmlns:sketch="http://www.bohemiancoding.com/sketch/ns">
    <!-- Generator: Sketch 3.4 (15575) - http://www.bohemiancoding.com/sketch -->
    <title>Artboard 2</title>
    <desc>Created with Sketch.</desc>
    <defs></defs>
    <g id="OZON.RU" stroke="none" stroke-width="1" fill="none" fill-rule="evenodd" sketch:type="MSPage">
        <g id="Artboard-1" sketch:type="MSArtboardGroup" transform="translate(-100.000000, -244.000000)">
            <path d="M99.98875,415.0975 L99.98875,359.4725 C99.98875,356.7225 102.23875,354 104.98875,354 L594.98875,354 C597.73875,354 599.98875,356.7225 599.98875,359.4725 L599.98875,415.0975 C599.98875,417.8475 597.73875,420 594.98875,420 L104.98875,420 C102.23875,420 99.98875,417.8475 99.98875,415.0975 Z" id="path22" fill="#FFB937" sketch:type="MSShapeGroup" transform="translate(349.988750, 387.000000) scale(1, -1) translate(-349.988750, -387.000000) "></path>
            <path d="M170.43,395.38125 L159.305,395.38125 L159.305,372.63125 C159.305,371.88125 159.18,371.25625 158.68,370.75625 C158.305,370.25625 157.68,370.13125 156.93,370.13125 C155.68,370.13125 154.93,370.13125 154.43,370.25625 C153.93,370.38125 153.555,370.63125 153.305,371.13125 C153.055,371.50625 152.93,372.00625 152.93,372.63125 L152.93,395.38125 L141.93,395.38125 C141.18,395.38125 140.555,395.63125 140.18,396.00625 C139.68,396.50625 139.555,397.13125 139.555,397.88125 C139.555,398.75625 139.555,399.38125 139.93,400.00625 C140.055,400.38125 140.43,400.63125 140.805,400.75625 C141.18,400.88125 141.555,401.00625 142.055,401.00625 L170.43,401.00625 C171.18,401.00625 171.805,400.75625 172.18,400.13125 C172.555,399.50625 172.805,398.88125 172.805,397.88125 C172.805,397.13125 172.68,396.50625 172.18,396.00625 C171.68,395.63125 171.18,395.38125 170.43,395.38125" id="path26" fill="#FFFFFF" sketch:type="MSShapeGroup" transform="translate(156.180000, 385.568750) scale(1, -1) translate(-156.180000, -385.568750) "></path>
            <path d="M243.78,387.124999 C242.78,386.874999 241.5,386.904999 240,386.904999 L223,387.124999 L223,395.904999 L240,395.904999 C242.5,395.904999 244.094999,395.904999 245,394.904999 C245.905001,393.905 245.905,393.124999 245.905,392.749999 L245.905,388.999999 C245.905,388.624999 244.78,387.374999 243.78,387.124999 Z M248.779999,399.405 C246.529999,400.28 247.155001,400.905 241,400.905 L219,400.905 C218.25,400.905 217,400.904999 216.625,400.404999 C216.125,399.904999 216,399.279999 216,398.654999 L216,372.904999 C216,372.404999 216.125,371.904999 216.375,371.404999 C216.625,371.029999 217.53,370.374999 217.905,370.249999 L218.03,370.249999 L218.405,370.124999 C218.78,369.999999 219.53,369.999999 220.53,369.999999 C221.28,369.999999 221.905,370.124999 222.28,370.624999 C222.655,371.124999 223,372.154999 223,372.904999 L223,381.904999 L246.155,370.249999 C246.78,370.124999 247.405,369.999999 248.28,369.999999 C249.405,369.999999 250.28,370.124999 250.905,370.499999 C251.53,370.874999 251.905,371.499999 251.905,372.249999 C251.905,372.749999 251.78,373.249999 251.405,373.624999 C251.155,373.999999 250.655,374.374999 250.155,374.624999 L235,381.904999 L241,381.904999 C243.875,381.904999 246.53,381.749999 248.78,382.624999 C250.28,383.249999 251.28,384.124999 252.03,385.249999 C252.78,386.374999 253.155,387.624999 253.155,388.999999 L253.155,392.624999 C253.155,394.124999 252.78,395.499999 252.03,396.624999 C251.155,397.749999 250.279999,398.78 248.779999,399.405 Z" id="path30" fill="#FFFFFF" sketch:type="MSShapeGroup" transform="translate(234.577500, 385.452500) scale(1, -1) translate(-234.577500, -385.452500) "></path>
            <path d="M306.22,383.125 L313.22,393.75 L320.22,383.125 L306.22,383.125 L306.22,383.125 Z M316.000001,399.0825 C315.530001,399.79 314.000001,401.0825 313.000001,401.0825 C312.000001,401.0825 310.875001,400.3325 310.000001,399.0825 L292.72,373.375 L292.595,372.75 L292.72,372.125 C292.72,371.375 293.375,371.25 294,370.875 C294.625,370.5 295.25,370.25 296,370.25 C296.875,370.25 297.5,370.75 298.125,371.625 L303,378.0825 L324.625,378.0825 L328.874999,371.75 C329.624999,370.625 330.624999,370 331.749999,370 C332.624999,370 333.374999,370.25 333.999999,370.875 C334.624999,371.5 334.595,371.375 334.595,372.25 C334.595,372.75 334.595,373 334.345,373.375 L316.000001,399.0825 Z" id="path34" fill="#FFFFFF" sketch:type="MSShapeGroup" transform="translate(313.595115, 385.541250) scale(1, -1) translate(-313.595115, -385.541250) "></path>
            <path d="M395.80375,372 C394.92875,370.625 393.67875,370 392.17875,370 C390.67875,370 389.42875,370.625 388.55375,372 L371.55375,396.875 C371.17875,397.5 370.92875,398.125 370.92875,398.625 C370.92875,399.25 372,401.0275 373,401.0275 C374.375,401.0275 376.42875,400.5 377.05375,399.625 L392.30375,377.375 L407.42875,399.625 C408.05375,400.5 409.625001,401.0275 411.000001,401.0275 C412.000001,401.0275 413.55375,399.375 413.55375,398.625 C413.55375,398.125 413.30375,397.5 412.92875,396.875 L395.80375,372 Z" id="path38" fill="#FFFFFF" sketch:type="MSShapeGroup" transform="translate(392.241250, 385.513750) scale(1, -1) translate(-392.241250, -385.513750) "></path>
            <path d="M463.375,377.125 C464.5,376.625 465.75,376 468,376 L483.99,376 C484.74,376 485.865,375.5 486.24,375 C486.615,374.5 486.865,373.875 486.865,373.125 C486.865,372.25 486.74,371.5 486.24,370.875 C485.865,370.25 485.115,370 484.49,370 L467.24,370 C464.365,370 461.865,370.5 459.49,371.625 C457.99,372.25 456.865,373.125 456.115,374.25 C455.365,375.375 454.99,376.625 454.99,378 L454.99,392.625 C454.99,394.125 455.115,395.875 456.115,397 C458.24,399.625 462.75,401 468,401 L483.99,401 C484.74,401 485.365,400.375 485.74,399.75 C486.115,399.125 486.24,398.5 486.24,397.5 C486.24,396.75 486.115,396.125 485.615,395.75 C485.24,395.25 484.74,395 483.99,395 L470,395 C467.875,395 465.49,395 464.24,394.625 C462.99,394.375 462.75,393.875 462.375,393.5 C462.125,393.25 462,392.875 462,392.5 L462,388 L484.615,388 C485.365,388 485.99,387.75 486.49,387.375 C486.99,386.875 487.115,386.25 487.115,385.375 C487.115,384.5 486.99,383.75 486.49,383.25 C485.99,382.75 485.75,383 485,383 L462,383 L462,378.875 C462,378.5 462.125,378.125 462.375,377.875 C462.625,377.625 462.875,377.25 463.375,377.125 Z" id="path42" fill="#FFFFFF" sketch:type="MSShapeGroup" transform="translate(471.052500, 385.500000) scale(1, -1) translate(-471.052500, -385.500000) "></path>
            <path d="M559.3925,370.07375 L552,370 C545,370 544.25,370.25 542,371 C540.25,371.625 539.8925,372.69875 539.0175,373.94875 C538.1425,375.19875 538,377.25 538,379 L538,398.875 C538,399.625 539.375,401 540,401 L542,401 C543,401 544,399.5 544,398.875 L544,379 C544,378.375 544.1425,377.32375 544.6425,376.94875 C545.1425,376.57375 545.875,376.25 547,376 C547.625,375.875 559,376 559,376 C559.75,376 560.6425,375.44875 561.0175,374.82375 C561.3925,374.19875 561.5175,373.44875 561.5175,372.57375 C561.7675,371.82375 561.5175,371.19875 561.1425,370.69875 C560.6425,370.19875 560.0175,370.07375 559.3925,370.07375 Z" id="path46" fill="#FFFFFF" sketch:type="MSShapeGroup" transform="translate(549.809066, 385.500000) scale(1, -1) translate(-549.809066, -385.500000) "></path>
            <path d="M444.983643,297.483791 C444.983643,306.996205 436.629336,315.047363 427.06567,315.047363 L389.944824,315.047363 C380.381158,315.047363 371.929443,306.996207 371.929443,297.483793 L371.929443,281.164062 C371.929443,271.001648 379.295504,263.926025 389.944824,263.926025 L427.06567,263.926025 C437.719495,263.926025 444.983643,271.383973 444.983643,281.546387 L444.983643,297.483791 Z M384.797239,244 C365.669907,244 350.020272,259.573103 350.020272,278.606897 L350.020272,300.393103 C350.020272,319.426897 365.669907,335 384.797239,335 L431.939852,335 C451.067184,335 466.712315,319.426897 466.712315,300.393103 L466.712315,278.606897 C466.712315,259.573103 451.067184,244 431.939852,244 L384.797239,244 Z M195.011353,297.483793 C195.011353,306.996207 186.609065,315.028566 177.045399,315.028566 L140.019165,315.028566 C130.455499,315.028566 121.88623,306.996207 121.88623,297.483793 L121.88623,281.516206 C121.88623,271.353793 129.36534,263.960937 140.019165,263.960937 L177.045399,263.960937 C187.699224,263.960937 195.011353,271.353793 195.011353,281.516206 L195.011353,297.483793 Z M134.776968,244 C115.649636,244 100,259.573103 100,278.606897 L100,300.393103 C100,319.426897 115.649636,335 134.776968,335 L181.919581,335 C201.046913,335 216.696548,319.426897 216.696548,300.393103 L216.696548,278.606897 C216.696548,259.573103 201.046913,244 181.919581,244 L134.776968,244 Z M507.983855,334.985352 L507.983855,281.516209 C507.983855,271.353795 514.344741,264.000586 524.998566,264.000586 L560.017842,264.000586 C570.671667,264.000586 578.066403,271.353795 578.066403,281.516209 L578.066403,335.002342 L599.999997,335.002342 L600,278.606897 C600,259.573103 584.350364,244 565.223032,244 L520.868884,244 C501.741551,244 486.091916,259.573103 486.091916,278.606897 L486.091916,334.985352 L507.983855,334.985352 Z" id="Fill-3" fill="#0079CC" sketch:type="MSShapeGroup"></path>
            <path d="M268.018165,315.026559 L331.257827,265.947241 C334.352617,263.652069 336.132008,260.133103 336.132008,256.295862 C336.132008,249.912414 331.105838,244.393497 323.781051,243.994531 L231.060938,243.994531 L234.780868,263.915626 L298.875,263.915626 L235.454488,313.034828 C232.359698,315.334483 230.580307,318.853448 230.580307,322.69069 C230.580307,329.329655 235.463602,334.993944 243.797461,334.993944 L335.931839,334.993944 L332.086708,315.026559 L268.018165,315.026559 Z" id="Fill-19" fill="#00B9F2" sketch:type="MSShapeGroup"></path>
        </g>
        <g id="Artboard-2" sketch:type="MSArtboardGroup"></g>
    </g>
</svg>